<svg xmlns="http://www.w3.org/2000/svg" width="600" height="400" viewBox="0 0 600 400">
  <defs>
    <linearGradient id="bg" x1="0%" y1="0%" x2="100%" y2="100%">
      <stop offset="0%" stop-color="#0A0F0D"/><stop offset="40%" stop-color="#121A16"/><stop offset="100%" stop-color="#0F2A1D"/>
    </linearGradient>
    <linearGradient id="gold" x1="0%" y1="0%" x2="100%" y2="100%">
      <stop offset="0%" stop-color="#E6C78B"/><stop offset="100%" stop-color="#8B6A3E"/>
    </linearGradient>
    <linearGradient id="wood" x1="0%" y1="0%" x2="100%" y2="0%">
      <stop offset="0%" stop-color="#5C3A1A"/><stop offset="30%" stop-color="#8B5A2B"/><stop offset="70%" stop-color="#A47148"/><stop offset="100%" stop-color="#5C3A1A"/>
    </linearGradient>
  </defs>
  <rect width="600" height="400" fill="url(#bg)"/>
  <rect x="60" y="240" width="480" height="8" rx="2" fill="url(#wood)" opacity="0.4"/>
  <g transform="translate(130, 170)" opacity="0.5">
    <rect x="0" y="20" width="12" height="50" rx="2" fill="#4F9B78" opacity="0.3"/>
    <rect x="30" y="20" width="12" height="50" rx="2" fill="#4F9B78" opacity="0.3"/>
    <rect x="-2" y="15" width="46" height="8" rx="2" fill="url(#gold)" opacity="0.4"/>
    <circle cx="21" cy="10" r="6" fill="none" stroke="#C8A96A" stroke-width="1" opacity="0.3"/>
  </g>
  <g opacity="0.12" fill="#C8A96A">
    <rect x="230" y="60" width="3" height="55"/><rect x="222" y="55" width="20" height="10" rx="2"/>
    <rect x="290" y="50" width="3" height="65"/><path d="M285 50 L300 50 L293 45 L291 50"/>
    <rect x="350" y="55" width="3" height="60"/><circle cx="351" cy="52" r="7" fill="none" stroke="#C8A96A" stroke-width="3"/>
    <rect x="410" y="50" width="4" height="65" rx="1"/><rect x="408" y="48" width="8" height="5" rx="1"/>
  </g>
  <g opacity="0.08" fill="none" stroke="#A47148" stroke-width="1">
    <path d="M180 260 Q200 255, 190 270 Q185 280, 200 275"/>
    <path d="M350 255 Q370 250, 365 265"/>
    <path d="M420 260 Q440 258, 430 272 Q425 278, 440 274"/>
  </g>
  <ellipse cx="300" cy="180" rx="160" ry="100" fill="#C8A96A" opacity="0.02"/>
  <text x="300" y="310" font-family="Georgia,serif" font-size="18" fill="#C8A96A" text-anchor="middle" letter-spacing="3" opacity="0.7">NUESTRO TALLER</text>
  <text x="300" y="335" font-family="system-ui,sans-serif" font-size="11" fill="#7A8C85" text-anchor="middle" letter-spacing="1">Donde la artesanía cobra vida</text>
  <path d="M15 15 L45 15 M15 15 L15 45" stroke="#C8A96A" stroke-width="0.8" fill="none" opacity="0.12"/>
  <path d="M585 15 L555 15 M585 15 L585 45" stroke="#C8A96A" stroke-width="0.8" fill="none" opacity="0.12"/>
  <path d="M15 385 L45 385 M15 385 L15 355" stroke="#C8A96A" stroke-width="0.8" fill="none" opacity="0.12"/>
  <path d="M585 385 L555 385 M585 385 L585 355" stroke="#C8A96A" stroke-width="0.8" fill="none" opacity="0.12"/>
</svg>
