<svg xmlns="http://www.w3.org/2000/svg" width="800" height="500" viewBox="0 0 800 500">
  <defs>
    <linearGradient id="bg" x1="0%" y1="0%" x2="100%" y2="100%">
      <stop offset="0%" stop-color="#0A0F0D"/>
      <stop offset="50%" stop-color="#0F2A1D"/>
      <stop offset="100%" stop-color="#121A16"/>
    </linearGradient>
    <linearGradient id="gold" x1="0%" y1="0%" x2="100%" y2="100%">
      <stop offset="0%" stop-color="#E6C78B"/>
      <stop offset="50%" stop-color="#C8A96A"/>
      <stop offset="100%" stop-color="#8B6A3E"/>
    </linearGradient>
    <linearGradient id="shine" x1="0%" y1="0%" x2="0%" y2="100%">
      <stop offset="0%" stop-color="#C8A96A" stop-opacity="0.15"/>
      <stop offset="100%" stop-color="#C8A96A" stop-opacity="0"/>
    </linearGradient>
    <filter id="glow">
      <feGaussianBlur stdDeviation="3" result="blur"/>
      <feMerge><feMergeNode in="blur"/><feMergeNode in="SourceGraphic"/></feMerge>
    </filter>
  </defs>
  <rect width="800" height="500" fill="url(#bg)"/>
  <g opacity="0.03" stroke="#C8A96A" stroke-width="0.5">
    <line x1="0" y1="100" x2="800" y2="100"/><line x1="0" y1="200" x2="800" y2="200"/>
    <line x1="0" y1="300" x2="800" y2="300"/><line x1="0" y1="400" x2="800" y2="400"/>
    <line x1="200" y1="0" x2="200" y2="500"/><line x1="400" y1="0" x2="400" y2="500"/>
    <line x1="600" y1="0" x2="600" y2="500"/>
  </g>
  <circle cx="400" cy="220" r="120" fill="none" stroke="#C8A96A" stroke-width="0.5" opacity="0.1"/>
  <circle cx="400" cy="220" r="90" fill="none" stroke="#C8A96A" stroke-width="0.5" opacity="0.15"/>
  <circle cx="400" cy="220" r="60" fill="none" stroke="#C8A96A" stroke-width="0.5" opacity="0.2"/>
  <g transform="translate(340, 150)" filter="url(#glow)">
    <rect x="25" y="10" width="8" height="90" rx="3" fill="url(#gold)" opacity="0.7" transform="rotate(-15 29 55)"/>
    <path d="M15 95 Q18 105, 5 115 Q0 118, 5 120 L30 105 Q35 100, 30 95 Z" fill="url(#gold)" opacity="0.6" transform="rotate(-15 29 55)"/>
    <rect x="85" y="10" width="8" height="90" rx="3" fill="url(#gold)" opacity="0.5" transform="rotate(15 89 55)"/>
    <path d="M95 95 Q98 105, 110 115 Q115 118, 110 120 L85 105 Q80 100, 85 95 Z" fill="url(#gold)" opacity="0.4" transform="rotate(15 89 55)"/>
    <ellipse cx="58" cy="130" rx="18" ry="6" fill="#1F2A25" stroke="#C8A96A" stroke-width="1" opacity="0.6"/>
  </g>
  <g opacity="0.08" fill="#C8A96A">
    <rect x="120" y="350" width="560" height="4" rx="2"/>
    <rect x="140" y="320" width="3" height="30"/><rect x="200" y="310" width="3" height="40"/>
    <rect x="260" y="325" width="3" height="25"/><rect x="520" y="315" width="3" height="35"/>
    <rect x="580" y="325" width="3" height="25"/><rect x="640" y="310" width="3" height="40"/>
  </g>
  <rect x="300" y="60" width="200" height="1" fill="url(#gold)" opacity="0.3"/>
  <text x="400" y="390" font-family="Georgia,serif" font-size="22" fill="#C8A96A" text-anchor="middle" letter-spacing="4" opacity="0.7">NUESTRA HISTORIA</text>
  <text x="400" y="420" font-family="system-ui,sans-serif" font-size="12" fill="#7A8C85" text-anchor="middle" letter-spacing="1">Más de dos décadas de artesanía y pasión</text>
  <rect x="300" y="440" width="200" height="1" fill="url(#gold)" opacity="0.3"/>
  <path d="M20 20 L60 20 M20 20 L20 60" stroke="#C8A96A" stroke-width="1" fill="none" opacity="0.15"/>
  <path d="M780 20 L740 20 M780 20 L780 60" stroke="#C8A96A" stroke-width="1" fill="none" opacity="0.15"/>
  <path d="M20 480 L60 480 M20 480 L20 440" stroke="#C8A96A" stroke-width="1" fill="none" opacity="0.15"/>
  <path d="M780 480 L740 480 M780 480 L780 440" stroke="#C8A96A" stroke-width="1" fill="none" opacity="0.15"/>
</svg>
