<svg xmlns="http://www.w3.org/2000/svg" width="600" height="400" viewBox="0 0 600 400">
  <defs>
    <linearGradient id="bg" x1="0%" y1="100%" x2="100%" y2="0%">
      <stop offset="0%" stop-color="#0F2A1D"/><stop offset="100%" stop-color="#121A16"/>
    </linearGradient>
    <linearGradient id="gold" x1="0%" y1="0%" x2="100%" y2="100%">
      <stop offset="0%" stop-color="#E6C78B"/><stop offset="50%" stop-color="#C8A96A"/><stop offset="100%" stop-color="#8B6A3E"/>
    </linearGradient>
    <filter id="glow">
      <feGaussianBlur stdDeviation="3" result="blur"/>
      <feMerge><feMergeNode in="blur"/><feMergeNode in="SourceGraphic"/></feMerge>
    </filter>
    <radialGradient id="spotlight" cx="50%" cy="40%" r="50%">
      <stop offset="0%" stop-color="#C8A96A" stop-opacity="0.06"/><stop offset="100%" stop-color="#C8A96A" stop-opacity="0"/>
    </radialGradient>
  </defs>
  <rect width="600" height="400" fill="url(#bg)"/>
  <ellipse cx="300" cy="160" rx="200" ry="140" fill="url(#spotlight)"/>
  <g transform="translate(230, 60)" filter="url(#glow)">
    <rect x="65" y="0" width="10" height="180" rx="3" fill="url(#gold)" opacity="0.35"/>
    <path d="M60 178 Q55 185, 40 195 Q30 200, 35 205 L78 188 Q85 183, 78 178 Z" fill="url(#gold)" opacity="0.3"/>
    <g stroke="#E6C78B" stroke-width="0.5" opacity="0.15">
      <line x1="66" y1="15" x2="74" y2="18"/><line x1="66" y1="25" x2="74" y2="28"/>
      <line x1="66" y1="35" x2="74" y2="38"/><line x1="66" y1="45" x2="74" y2="48"/>
      <line x1="66" y1="55" x2="74" y2="58"/>
    </g>
    <text x="70" y="120" font-family="Georgia,serif" font-size="6" fill="#C8A96A" text-anchor="middle" opacity="0.25" transform="rotate(90 70 120)">IMPERIAL</text>
  </g>
  <g transform="translate(420, 100)" opacity="0.3">
    <circle cx="30" cy="30" r="28" fill="none" stroke="url(#gold)" stroke-width="1.2"/>
    <circle cx="30" cy="30" r="22" fill="none" stroke="url(#gold)" stroke-width="0.5"/>
    <path d="M18 30 L26 38 L42 22" fill="none" stroke="#C8A96A" stroke-width="2" stroke-linecap="round" stroke-linejoin="round"/>
    <text x="30" y="70" font-family="system-ui,sans-serif" font-size="8" fill="#7A8C85" text-anchor="middle">Certificado</text>
  </g>
  <g transform="translate(225, 265)" opacity="0.2">
    <polygon points="10,0 12.5,7 20,7 14,11.5 16,19 10,14.5 4,19 6,11.5 0,7 7.5,7" fill="#C8A96A"/>
    <polygon points="40,0 42.5,7 50,7 44,11.5 46,19 40,14.5 34,19 36,11.5 30,7 37.5,7" fill="#C8A96A"/>
    <polygon points="70,0 72.5,7 80,7 74,11.5 76,19 70,14.5 64,19 66,11.5 60,7 67.5,7" fill="#C8A96A"/>
    <polygon points="100,0 102.5,7 110,7 104,11.5 106,19 100,14.5 94,19 96,11.5 90,7 97.5,7" fill="#C8A96A"/>
    <polygon points="130,0 132.5,7 140,7 134,11.5 136,19 130,14.5 124,19 126,11.5 120,7 127.5,7" fill="#C8A96A"/>
  </g>
  <text x="300" y="320" font-family="Georgia,serif" font-size="18" fill="#C8A96A" text-anchor="middle" letter-spacing="3" opacity="0.7">PRODUCTO FINAL</text>
  <text x="300" y="345" font-family="system-ui,sans-serif" font-size="11" fill="#7A8C85" text-anchor="middle" letter-spacing="1">Excelencia lista para el hielo</text>
  <path d="M15 15 L45 15 M15 15 L15 45" stroke="#C8A96A" stroke-width="0.8" fill="none" opacity="0.12"/>
  <path d="M585 15 L555 15 M585 15 L585 45" stroke="#C8A96A" stroke-width="0.8" fill="none" opacity="0.12"/>
  <path d="M15 385 L45 385 M15 385 L15 355" stroke="#C8A96A" stroke-width="0.8" fill="none" opacity="0.12"/>
  <path d="M585 385 L555 385 M585 385 L585 355" stroke="#C8A96A" stroke-width="0.8" fill="none" opacity="0.12"/>
</svg>
